<svg width="1000" height="1000" viewBox="0 0 1000 1000" fill="none" xmlns="http://www.w3.org/2000/svg">
<path d="M856.9 753.201C854.6 741.101 852.8 729.601 842.7 719.601C635.2 512.801 428 305.501 221.1 98.1009C212.2 89.2009 207.7 88.5009 198.4 97.8009C153.6 143.401 107.9 188.101 62.5 233.101V236.501C68.9 238.501 72.2 244.201 76.6 248.501C282.3 454.001 487.8 659.601 693.4 865.301C700.4 872.301 707.5 877.701 717.6 879.801C769 890.001 820.3 900.701 871.6 911.501C882.6 913.801 886.8 912.501 884.2 899.401C874.5 850.801 866.1 801.901 856.9 753.201ZM747.2 824.101C742.3 830.001 735.6 831.601 728.8 827.701C725.4 825.801 722.6 822.701 719.8 819.901C529.1 629.201 338.4 438.601 147.8 247.901C145 245.101 141.7 242.401 139.8 239.001C134.2 229.101 141.2 216.701 152.9 216.501C160.6 216.901 165 223.401 170.2 228.501L555.5 613.901C616.1 674.501 676.7 735.101 737.2 795.701C740.8 799.301 744.5 802.901 747.7 806.901C752.4 812.601 751.6 818.801 747.2 824.101ZM798.1 773.301C792.8 776.201 787 776.401 781.9 772.601C778.3 769.901 775.2 766.401 771.9 763.201L205.1 196.201C202.7 193.801 200.2 191.401 197.9 188.901C191.4 182.201 190 174.601 196.5 167.601C203.7 159.801 211.7 161.401 219 168.301C221.5 170.601 223.9 173.101 226.3 175.501C414.9 364.101 603.5 552.701 792 741.301C797.6 746.901 804.5 751.601 805.6 761.101C804.9 765.801 802.9 770.601 798.1 773.301ZM933.1 232.101C886.5 185.901 839.9 139.501 793.8 92.8009C786.5 85.4009 782.7 87.2009 776.3 93.6009C699.8 170.501 623.1 247.201 546.2 323.801C540.4 329.601 538.1 333.401 545.3 340.101C560.3 354.101 574.8 368.701 588.9 383.701C594.6 389.801 598.3 389.701 603.8 383.801C609.1 378.201 613 373.801 604.8 367.601C600.7 364.501 597.7 360.201 593.8 356.801C587.2 351.201 584.7 346.701 592.4 339.001C599.9 331.501 604.4 333.301 610 340.101C613.6 344.501 618.3 348.001 622 352.301C627.3 358.501 631.2 356.301 635.9 351.501C640.8 346.601 644.8 342.501 637.4 336.401C633 332.801 629.4 328.201 625.2 324.401C619.6 319.401 615.9 315.501 623.4 308.001C630.5 301.001 635.2 301.101 641.1 308.501L651.9 319.501C657.7 326.901 662.2 325.401 668.2 319.201C673.8 313.501 675.1 309.501 668.3 304.101C664.3 300.901 661.2 296.701 657.3 293.301C651.3 287.901 647.3 284.001 655.4 275.801C663.7 267.301 668.1 270.001 674 277.101C677.2 281.101 681.6 284.101 684.7 288.101C690.1 295.201 694 293.201 699.5 287.801C705.3 282.101 707.8 277.701 699.9 271.901L690.1 262.401C680.5 255.401 680.9 250.001 689.7 241.501C719 213.501 747.6 184.701 775.8 155.601C783.2 147.901 787.2 148.001 794.5 155.601C818.2 180.301 842.3 204.701 867.2 228.201C876.8 237.301 875.9 242.201 867 251.001C803 314.601 739.3 378.501 675.6 442.401C671.1 446.901 660.9 451.501 664.8 457.601C671.8 468.301 682.5 476.601 692.2 486.401C695.3 483.801 698 481.901 700.4 479.501C777.9 402.001 855.4 324.401 933.1 247.101C939 241.301 938.9 237.901 933.1 232.101ZM419.6 697.601C371.8 746.701 323 794.801 274.5 843.301C271.3 846.501 267.9 849.601 263.9 853.401C262 851.801 260.2 850.701 258.8 849.201C231.3 821.801 203.8 794.301 176.4 766.801C174 764.401 171.9 762.401 173.9 758.101C181.9 741.001 196 738.001 209 751.001C210.6 752.601 212.5 754.001 213.8 755.901C219.3 763.301 223.7 764.201 231.1 756.901C238.2 749.801 236 745.901 230 740.701C226.5 737.701 223.8 733.901 220.2 731.101C212.4 724.901 211.5 720.001 219.4 712.001C227.8 703.501 231.8 708.901 237 714.401C240.9 718.601 245.3 722.301 249.1 726.601C255 733.401 258.7 728.601 262.9 724.601C267.4 720.301 271 716.401 264.4 710.701C260.5 707.401 257 703.501 253.5 699.801C248.2 694.301 240.9 690.601 250.3 681.001C260.2 670.801 264.6 677.801 270.6 684.001C273.4 686.901 276.6 689.401 279 692.501C284.5 699.601 288.7 699.101 295.1 692.801C301.6 686.301 301.4 682.101 294.6 676.601C290.6 673.401 287.6 669.001 283.6 665.901C276.2 660.101 275.7 655.701 283 648.601C290 641.801 293.9 643.401 299.1 649.601C302.4 653.501 306.5 656.701 309.9 660.601C314.9 666.401 318.8 669.301 326 662.001C333 654.901 333 650.501 325.5 644.701C321.9 642.001 319.2 638.101 315.7 635.101C309.5 629.801 305.9 625.801 313.9 617.601C322.1 609.201 326.8 611.501 332.7 618.801C335.9 622.801 340.2 625.901 343.4 629.801C349.2 636.901 353.4 633.801 358.7 628.801C364.7 623.201 365 619.401 358.9 613.601C344.4 599.801 330 585.901 316.7 571.101C309 562.501 305 564.901 298.1 571.801C238.6 631.801 178.8 691.601 118.7 751.101C110.6 759.101 110.9 763.401 118.8 771.201C163.6 815.301 208.1 859.601 252.1 904.501C261.1 913.701 266 914.801 275.8 904.901C331.4 848.201 387.8 792.401 444 736.201C462.8 717.401 462.3 717.901 443.7 697.901C434.5 688.601 429.4 687.501 419.6 697.601ZM820.6 240.901C820.9 220.301 804.7 203.401 784.5 203.301C765 203.201 748.5 219.201 747.9 238.901C747.3 260.101 764.1 277.601 785 277.401C804.2 277.101 820.4 260.601 820.6 240.901Z" fill="#FF305B"/>
</svg>
