<svg width="1000" height="1000" viewBox="0 0 1000 1000" fill="none" xmlns="http://www.w3.org/2000/svg">
<path d="M240.5 552L424.8 631.9C426.5 632.6 427.8 631.7 427.8 629.9V582.9C427.8 581.1 426.4 579.1 424.7 578.4L298.2 528.6C296.5 527.9 296.5 526.9 298.2 526.2L424.7 477.5C426.4 476.8 427.8 474.9 427.8 473V425.6C427.8 423.8 426.5 422.9 424.8 423.6L240.5 503.5C238.8 504.2 237.5 506.3 237.5 508.1V547.3C237.5 549.2 238.8 551.2 240.5 552ZM470 669.6C475.2 669.6 479.1 668.4 481.8 666.1C484.5 663.8 486.5 660.5 487.9 656.4C489.2 652.3 490.8 646.6 492.5 639.4L545.5 421.3C548.1 411 549.5 403.8 549.5 399.9C549.5 394.6 547.8 390.4 544.5 387.4C541.1 384.4 536.3 382.9 530 382.9C522.7 382.9 517.8 385 515.2 389.4C512.7 393.7 510.1 401.6 507.3 413.2L454.5 631.3C452 642.9 450.7 650.1 450.7 653C450.7 664.1 457.1 669.6 470 669.6ZM575.2 632.2L759.5 552C761.2 551.3 762.5 549.2 762.5 547.4V508.6C762.5 506.8 761.2 504.7 759.5 504L575.2 424.5C573.5 423.8 572.2 424.7 572.2 426.5V473C572.2 474.8 573.6 476.8 575.3 477.5L702.2 526.6C703.9 527.3 703.9 528.3 702.2 529L575.3 578.8C573.6 579.5 572.2 581.5 572.2 583.3V630.3C572.2 632 573.5 632.9 575.2 632.2ZM885 115H115C86 115 62.5 138.5 62.5 167.5V832.5C62.5 861.5 86 885 115 885H885C914 885 937.5 861.5 937.5 832.5V167.5C937.5 138.5 914 115 885 115ZM885 832.5H115V255H885V832.5Z" fill="#FF305B"/>
</svg>
