<svg width="1000" height="1000" viewBox="0 0 1000 1000" fill="none" xmlns="http://www.w3.org/2000/svg">
<path d="M932.9 159.2C923.8 138.6 906.5 131.1 884.8 131.1C756.6 131.4 628.5 131.4 500.1 131.4H118.3C80.1 131.4 62.5 148.7 62.5 186.7V817.3C62.5 831.9 65.8 844.8 76.5 855.3C87.5 866.3 101.5 868.8 116.4 868.8H885.9C917.8 868.8 937.3 849.8 937.3 818.7C937.6 606.4 937.6 393.8 937.3 181.2C937.3 173.8 935.9 165.8 932.9 159.2ZM304 188.9C319.4 188.9 327.4 196.6 327.4 212C327.4 227.7 320.2 235.1 304.6 235.4C288.6 235.4 281.5 228.5 281.5 212.6C281.4 196.4 288.3 189.2 304 188.9ZM223.7 188.9C239.4 188.9 246.3 196 246.3 212.3C246.3 228.8 240 235.1 223.7 235.4C208 235.4 200.6 228 200.6 212.3C200.6 196.9 208.3 189.2 223.7 188.9ZM142.8 188.9C157.9 188.9 166.2 196.6 166.4 212C166.7 227.4 159 235.1 143.6 235.4C127.4 235.4 120.2 228.5 119.9 212.9C119.7 197.2 127.4 189.2 142.8 188.9ZM914.5 814.3C914.5 837.7 906.8 845.1 883.7 845.1H115.3C93.3 845.1 85.3 837.4 85.3 815.4V293.4H914.4L914.5 814.3ZM471.4 765.6C504.6 757.6 520.4 722.9 504.9 692.4C504 690.6 503.8 687.3 504.9 685.8C517.9 668 531.1 650.5 544.4 633C545.3 631.9 547.7 631 549.1 631.4C563.2 634.9 576.2 632.2 588.8 624.6C590.2 625.6 591.4 626.3 592.5 627.1C609.8 640.1 627.1 653 644.2 666.1C645.5 667.1 646 670 646 672C646 678.1 644.8 684.3 645.5 690.2C648.1 711.4 663.7 727.7 685.1 732.3C705 736.6 726.5 727.2 737.4 709.6C748.7 691.3 747.5 668.4 734.1 651.8C731.7 648.8 731.6 646.8 733.3 643.6C751.2 608.1 769 572.5 786.7 536.8C788.5 533.2 790.3 531.9 794.7 532.1C822.2 533.3 845.6 510 845.6 482.1C845.6 454.3 821.9 430.7 794.6 431.9C774.1 432.8 758.4 442.4 749.9 461.2C741.7 479.4 743.8 497.1 756.2 513.2C758.2 515.8 759.1 517.7 757.4 521.1C739.2 557.1 721.1 593.3 702.8 629.3C701.9 631 699.1 632.8 697.2 632.8C687.6 632.7 678.7 634.6 670.4 639.4C667.7 641 666.1 640.6 663.7 638.8C647.1 626.2 630.5 613.7 613.7 601.4C610.1 598.7 608.9 596.4 609.9 591.7C617.5 557.3 584.8 525.4 550.5 533.5C517 541.4 501.2 576.4 517 607.1C517.8 608.7 517.8 611.8 516.8 613.2C503.9 630.8 490.8 648.2 477.6 665.5C476.5 666.9 473.8 667.6 471.9 667.6C465 667.7 458 666.4 451.3 667.4C424.2 671.5 405.9 698.9 411.2 726.5C416.7 753.6 444.8 771.9 471.4 765.6ZM240.9 638.8C295.3 657.1 345.6 636.9 372.8 607.6C372.6 607.3 372.5 606.9 372.2 606.6L339.8 578.5C319.5 560.9 299.1 543.4 278.9 525.7C277 524 275.4 521.5 274.6 519C265.1 490.1 255.9 461.2 246.5 432.3C242.9 421.2 239.3 410.2 235.6 398.8C192.2 415.3 154.2 460.4 154.1 518.9C154.2 571.8 189.7 621.6 240.9 638.8ZM293.1 519.3C298.7 524.1 304.2 528.9 309.7 533.7C327.5 549.1 345.3 564.5 363.2 579.9C369.6 585.5 376.1 591 382.5 596.5C435 529.2 405.4 440.9 349.5 409.9C349.2 410.2 348.9 410.4 348.7 410.7C329.9 445.4 311 480.2 292.1 514.9C291.1 517 291.7 518.1 293.1 519.3ZM336.8 402.8C314.6 390.1 274.4 386.6 249.4 394.8C260.8 430.1 272.1 465.3 283.7 501.3C301.8 467.9 319.3 435.3 336.8 402.8Z" fill="#FF305B"/>
</svg>
