<svg width="1000" height="1000" viewBox="0 0 1000 1000" fill="none" xmlns="http://www.w3.org/2000/svg">
<g clip-path="url(#clip0_440_1763)">
<path d="M769.8 691.8C756.6 687 743.3 682.1 730.7 676C704.4 663.3 690 641.7 689.5 612.6C689.1 583.5 702.7 561.5 728.7 548C737.6 543.4 747 539.5 756.5 536.4C771.9 531.5 778.6 520.6 777.4 505.5C774.6 471.1 762.6 440 739.9 413.6C729.7 401.7 717.2 397.8 702.1 405.2C694 409.1 685.3 411.8 676.8 414.8C647.9 425.2 622.2 419.3 600.6 397.9C580.1 377.6 575 347.1 586.6 319.7C588.7 314.6 590.8 309.4 593.4 304.6C601.2 290.3 597.3 278 586.1 268.1C560.9 245.9 531.5 232.5 498 229.2C482.4 227.7 470.6 233.2 465.3 249.4C462.8 257 459.6 264.5 455.9 271.6C442.4 297.6 420.8 311.6 391.5 311.1C362.3 310.7 341 296.2 328.5 269.6C324.2 260.5 320.6 251.1 317.4 241.6C312.5 227.2 302.4 220.1 287.7 221.2C251 224 218.4 237.2 191.3 262.4C180.8 272.2 177.5 284 184.3 297.9C188.3 306 191.3 314.6 194.3 323.1C203.7 349.6 199.4 374 180.7 394.7C161.5 416 137 422.3 109.3 414.8C100.6 412.5 92 409.2 84 405.1C68.3 397.1 55.6 401.5 45.1 413.9C23.8 439 10.4 468 6.79999 500.8C4.39999 522.7 9.59999 530.1 30.2 538.7C36.2 541.2 42.3 543.6 48 546.8C73.4 561.1 86.8 583 86 612.2C85.2 642 70.5 663.5 43.5 676.4C37.2 679.4 30.6 682 23.9 684.2C8.69999 689.3 2.59999 700 3.49999 715.6C5.89999 745.7 15.7 773.4 32.5 798.4C48 821.4 57.2 824 82.9 813.5C109.8 802.5 135.9 802.4 160.5 819.3C192.4 841.1 201.7 877.8 184.8 918.4C178.7 933.2 178.2 946 190.3 956.8C216.6 980 247.1 994.5 282.4 997.2C298.1 998.4 309.7 992.7 314.6 976.3C316.9 968.6 320.3 961.3 323.6 954C335.8 927.3 362.6 910.3 390.8 911.2C418.9 912 444.7 930.8 455.3 958.1C457.7 964.2 459.8 970.4 462.3 976.4C470.5 996.4 479.3 1002.2 500.5 999.2C530.3 994.9 557.8 984 581.4 964.9C598.9 950.8 601 941.1 592.8 920.2C590.4 914.1 587.7 908.2 585.5 902C575.3 873.2 580.4 847 602 825.6C623.6 804.1 649.8 799.2 678.5 810C690.3 814.4 701.9 819.1 713.3 824.4C724.8 829.7 735.6 828.6 744 820C772.1 791.3 788.3 757 788.4 716.3C788.5 703.8 781.6 696.1 769.8 691.8ZM393.2 791.7C294.4 791.3 214.5 710.3 215.3 611.2C216.1 513 296.6 434.2 395.5 434.8C494 435.3 572.9 515.5 572.3 614.3C571.8 712.8 491.8 792 393.2 791.7ZM395 526.7C347.9 525.6 308.1 563.8 306.8 611.5C305.5 658.6 343.7 698.4 391.5 699.6C438.8 700.8 478.8 662.5 479.7 615C480.5 567.7 442.2 527.8 395 526.7ZM394.2 653.6C371.4 654.1 352.9 635.9 352.9 613.1C353 590.9 370.9 573 393 572.9C415.1 572.8 433.3 590.6 433.6 612.6C433.9 634.8 416.2 653.2 394.2 653.6ZM831.9 390.4C831.2 386.4 831 382.2 830.9 378.1C830.3 363.1 838.7 349.1 851.9 343C865 336.9 881.2 339.6 892.3 349.6L899.7 356.4C908.1 363.7 913.5 364.3 922.5 358C935.2 349.1 945.3 337.8 951.7 323.6C956.5 313.1 955.2 308.2 946.6 300.5C944.1 298.3 941.5 296.1 939.1 293.8C927.8 282.9 924.1 269.8 929 255C934 240.2 944.9 231.9 960.5 230.2C966.9 229.5 973.3 229 979.8 228.8C986.3 228.6 991 225.6 992.9 219.7C999.2 200.1 998.7 180.6 989.4 161.9C986.5 156.2 981.6 154.2 975.2 155C968 155.9 960.8 156.6 953.6 156.7C938.6 156.9 927 150.4 920.1 137.1C913.2 123.9 914.4 110.6 923.2 98.4001C926.2 94.2001 929.6 90.3001 933.3 86.7001C939.2 80.9001 939.8 74.4001 935.8 67.7001C926.6 52.6001 913.9 41.1001 897.4 34.2001C890 31.1001 883.4 32.2001 878.1 39.1001C875.3 42.8001 871.9 46.0001 868.7 49.3001C857.8 60.7001 844.7 63.9001 829.8 59.1001C815.7 54.5001 806.4 41.7001 805.4 26.4001C805.2 23.6001 805 20.7001 805 17.9001C805.3 9.50013 800.7 4.80013 793.2 2.80013C776.5 -1.59987 760 -0.999875 743.8 5.20013C736.3 8.10013 732.1 13.4001 733.4 22.0001C734 26.1001 734.2 30.2001 734.2 34.3001C734 49.3001 727.3 60.7001 713.8 67.3001C700.3 73.8001 687.2 72.1001 675.3 62.8001C671.3 59.6001 667.4 56.1001 663.8 52.5001C658.2 47.0001 652 46.1001 645.5 50.0001C629.3 59.7001 617.4 73.3001 610.8 91.1001C608.2 98.0001 609.4 104.2 615.8 109C619.5 111.8 622.8 115.1 626.2 118.3C636.6 128.3 640.3 140.5 636.5 154.3C632.6 168.5 622.8 177 608.4 180C603.9 180.9 599.2 181.4 594.6 181.4C585.6 181.4 580.7 186.3 578.8 194.4C574.8 210.8 575.4 227.2 581.3 243.1C585.2 253.7 589.3 255.9 600.8 255.1C604.1 254.9 607.5 254.6 610.8 254.7C625.8 255.4 637 262.4 643.3 276C649.8 289.9 648 303.1 638.6 315.2C636.4 318 634 320.7 631.4 323.3C625.6 329.1 625.3 335.5 629.3 342.4C637.3 355.7 648.2 366.1 661.7 373.7C674.1 380.7 678.9 379.8 688.3 369C698.1 357.8 710.1 351.7 725.2 353.8C744.9 356.5 757.6 371.1 759.2 393.7C759.8 401.9 762.5 407.9 770.6 410C788 414.6 805.3 414.2 822.2 407.3C829.4 404.3 833.4 399 831.9 390.4ZM702.1 245.7C679.9 200.5 698.6 145.8 744.1 123.2C789.4 100.8 844.1 119.3 866.6 164.8C889.1 210.1 870.6 264.9 825.3 287.5C779.8 310.1 724.5 291.3 702.1 245.7ZM765 165.5C743.1 175.9 733.7 202.6 744.1 224.7C754.3 246.6 781.1 256.1 803.3 245.6C825.3 235.2 834.8 208.5 824.3 186.5C813.7 164.6 786.9 155.1 765 165.5ZM793.9 223.9C783.5 229.4 770.9 225.3 765.6 214.8C760.5 204.6 764.6 192.3 774.7 187.1C784.8 182 797.3 185.9 802.5 196C807.8 206.2 803.9 218.7 793.9 223.9ZM992.4 465.7C989.5 464.9 986.5 464.1 983.7 463.1C977.8 460.9 974.3 456.6 973.6 450.4C972.9 444.2 975.4 439.2 980.7 435.8C982.5 434.6 984.4 433.6 986.4 432.8C989.6 431.4 990.8 429 990.3 425.8C989 418.5 985.8 412.1 980.5 406.9C978.1 404.6 975.3 404 972.3 405.8C970.6 406.8 968.8 407.5 967.1 408.4C961.1 411.2 955.5 410.4 950.5 406.3C945.7 402.4 944 396 946 389.8C946.4 388.7 946.7 387.5 947.2 386.4C948.6 383.2 947.5 380.6 944.9 378.7C939.1 374.5 932.5 372.2 925.3 372.1C921.9 372.1 919.5 373.5 918.7 377.1C918.3 378.8 917.8 380.4 917.1 382C914.7 387.8 910.4 391.2 904.1 391.7C897.8 392.2 893 389.5 889.8 384.1C888.7 382.2 887.8 380.3 886.9 378.3C885.6 375.3 883.3 374 880.1 374.5C872.3 375.8 865.6 379.3 860.3 385.2C858.2 387.5 857.8 390.1 859.5 392.9C860.5 394.6 861.3 396.3 862.1 398.1C864.6 403.6 864.2 408.9 860.6 413.7C856.9 418.6 851.8 420.5 845.7 419.4C843.8 419.1 841.9 418.5 840.1 417.8C836.6 416.4 834 417.6 832 420.4C827.9 426.2 825.7 432.7 825.5 439.7C825.4 444.4 826.7 445.9 831.3 447.3C832.6 447.7 834 448.1 835.3 448.7C841 451.3 844.3 455.7 844.7 461.9C845.1 468.3 842.4 473.2 836.9 476.5C835.6 477.3 834.2 478 832.9 478.6C829.8 480 828.7 482.4 829.2 485.7C830.3 492.1 832.9 497.8 837 502.8C840.8 507.4 842.8 507.8 848.1 505C853.6 502.1 859.2 501.6 864.8 504.7C872 508.7 874.8 516.4 872 525.4C871 528.7 871.1 531.4 873.9 533.5C880 537.9 886.8 540.4 894.4 540.3C897.8 540.3 900.2 538.8 900.9 535.2C901.2 533.5 901.8 531.9 902.4 530.2C904.5 524.3 909.9 520.1 915.9 519.7C921.9 519.3 927.8 522.8 930.6 528.4C931.2 529.7 931.8 530.9 932.5 532.2C934.7 536.3 936.6 537.4 941.1 536.3C947.4 534.8 953 531.9 957.7 527.4C961.2 524 961.4 521.9 959.2 517.6C958.6 516.3 957.9 515.1 957.3 513.9C954.5 507.9 955.1 502.3 959.3 497.2C963.5 492.2 969 490.6 975.3 492.4C977.9 493.1 980.5 493.9 983 494.8C985.6 495.7 987.8 495.3 989.5 493.3C994.9 486.6 997.7 479 996.9 470.2C996.6 467.9 995 466.4 992.4 465.7ZM913.8 494.5C892.7 496.4 874 480.6 872.2 459.4C870.4 438.4 886.1 420 907.2 418.1C928.3 416.3 946.7 431.8 948.6 453C950.5 474.1 934.9 492.6 913.8 494.5ZM909 437.8C898.9 438.5 891.2 447.5 891.8 457.7C892.4 467.8 901.4 475.6 911.6 474.9C921.7 474.2 929.5 465.2 928.8 455.1C928.1 444.9 919.1 437.1 909 437.8ZM911.3 465C906.4 465.6 902.1 462 901.7 457.2C901.3 452.5 904.7 448.3 909.5 447.8C914.2 447.3 918.5 450.8 919 455.5C919.5 460.2 916 464.4 911.3 465Z" fill="#FF305B"/>
</g>
<defs>
<clipPath id="clip0_440_1763">
<rect width="1000" height="1000" fill="white"/>
</clipPath>
</defs>
</svg>
